<svg xmlns="http://www.w3.org/2000/svg" viewBox="0 0 1100 1520" font-family="'Segoe UI', system-ui, -apple-system, sans-serif">
  <defs>
    <marker id="arrow" viewBox="0 0 10 10" refX="9" refY="5" markerWidth="7" markerHeight="7" orient="auto-start-auto">
      <path d="M 0 0 L 10 5 L 0 10 z" fill="#64748b"/>
    </marker>
    <marker id="arrow-blue" viewBox="0 0 10 10" refX="9" refY="5" markerWidth="7" markerHeight="7" orient="auto-start-auto">
      <path d="M 0 0 L 10 5 L 0 10 z" fill="#3b82f6"/>
    </marker>
    <marker id="arrow-green" viewBox="0 0 10 10" refX="9" refY="5" markerWidth="7" markerHeight="7" orient="auto-start-auto">
      <path d="M 0 0 L 10 5 L 0 10 z" fill="#22c55e"/>
    </marker>
    <marker id="arrow-amber" viewBox="0 0 10 10" refX="9" refY="5" markerWidth="7" markerHeight="7" orient="auto-start-auto">
      <path d="M 0 0 L 10 5 L 0 10 z" fill="#f59e0b"/>
    </marker>
    <linearGradient id="bg" x1="0" y1="0" x2="0" y2="1">
      <stop offset="0%" stop-color="#0f172a"/>
      <stop offset="100%" stop-color="#1e293b"/>
    </linearGradient>
    <filter id="glow">
      <feGaussianBlur stdDeviation="2" result="blur"/>
      <feMerge><feMergeNode in="blur"/><feMergeNode in="SourceGraphic"/></feMerge>
    </filter>
  </defs>

  <!-- Background -->
  <rect width="1100" height="1520" rx="12" fill="url(#bg)"/>

  <!-- Title -->
  <text x="550" y="42" text-anchor="middle" fill="#f8fafc" font-size="22" font-weight="700" letter-spacing="0.5">Calvis — End-to-End Pipeline</text>
  <text x="550" y="64" text-anchor="middle" fill="#94a3b8" font-size="12">AI dispatch agent for physical security · 273 incidents · 10-hour night shift</text>

  <!-- ═══════════════════════════════════════════ -->
  <!-- PHASE 1: WORLD GENERATION                  -->
  <!-- ═══════════════════════════════════════════ -->
  <rect x="40" y="88" width="1020" height="115" rx="8" fill="#1e293b" stroke="#334155" stroke-width="1"/>
  <text x="60" y="110" fill="#38bdf8" font-size="11" font-weight="700" letter-spacing="1">PHASE 1 — WORLD GENERATION</text>
  <text x="960" y="110" fill="#475569" font-size="10" text-anchor="end">seed-world.ts · scenarios.ts</text>

  <!-- Seed -->
  <rect x="70" y="124" width="120" height="60" rx="6" fill="#0f172a" stroke="#38bdf8" stroke-width="1.5"/>
  <text x="130" y="150" text-anchor="middle" fill="#38bdf8" font-size="11" font-weight="600">Seeded RNG</text>
  <text x="130" y="166" text-anchor="middle" fill="#94a3b8" font-size="9">deterministic</text>

  <!-- Sites -->
  <rect x="230" y="124" width="130" height="60" rx="6" fill="#0f172a" stroke="#334155" stroke-width="1"/>
  <text x="295" y="146" text-anchor="middle" fill="#e2e8f0" font-size="11" font-weight="600">12 Sites</text>
  <text x="295" y="162" text-anchor="middle" fill="#94a3b8" font-size="9">3–6 zones each</text>
  <text x="295" y="174" text-anchor="middle" fill="#94a3b8" font-size="9">exposure ratings</text>

  <!-- Guards -->
  <rect x="400" y="124" width="130" height="60" rx="6" fill="#0f172a" stroke="#334155" stroke-width="1"/>
  <text x="465" y="146" text-anchor="middle" fill="#e2e8f0" font-size="11" font-weight="600">20–30 Guards</text>
  <text x="465" y="162" text-anchor="middle" fill="#94a3b8" font-size="9">skills, reliability</text>
  <text x="465" y="174" text-anchor="middle" fill="#94a3b8" font-size="9">shift schedules</text>

  <!-- Robots -->
  <rect x="570" y="124" width="130" height="60" rx="6" fill="#0f172a" stroke="#334155" stroke-width="1"/>
  <text x="635" y="146" text-anchor="middle" fill="#e2e8f0" font-size="11" font-weight="600">3–5 Robots/site</text>
  <text x="635" y="162" text-anchor="middle" fill="#94a3b8" font-size="9">patrol routes</text>
  <text x="635" y="174" text-anchor="middle" fill="#94a3b8" font-size="9">sensor FP rates</text>

  <!-- Scenarios -->
  <rect x="740" y="124" width="150" height="60" rx="6" fill="#0f172a" stroke="#38bdf8" stroke-width="1.5"/>
  <text x="815" y="146" text-anchor="middle" fill="#38bdf8" font-size="11" font-weight="600">20 Scenarios</text>
  <text x="815" y="162" text-anchor="middle" fill="#94a3b8" font-size="9">273+ events / night</text>
  <text x="815" y="174" text-anchor="middle" fill="#94a3b8" font-size="9">12 event types</text>

  <!-- PGlite -->
  <rect x="930" y="124" width="100" height="60" rx="6" fill="#0f172a" stroke="#a78bfa" stroke-width="1.5"/>
  <text x="980" y="150" text-anchor="middle" fill="#a78bfa" font-size="11" font-weight="600">PGlite</text>
  <text x="980" y="166" text-anchor="middle" fill="#94a3b8" font-size="9">in-memory</text>

  <!-- Arrows phase 1 -->
  <line x1="190" y1="154" x2="228" y2="154" stroke="#64748b" stroke-width="1.2" marker-end="url(#arrow)"/>
  <line x1="360" y1="154" x2="398" y2="154" stroke="#64748b" stroke-width="1.2" marker-end="url(#arrow)"/>
  <line x1="530" y1="154" x2="568" y2="154" stroke="#64748b" stroke-width="1.2" marker-end="url(#arrow)"/>
  <line x1="700" y1="154" x2="738" y2="154" stroke="#64748b" stroke-width="1.2" marker-end="url(#arrow)"/>
  <line x1="890" y1="154" x2="928" y2="154" stroke="#64748b" stroke-width="1.2" marker-end="url(#arrow)"/>

  <!-- Down arrow to phase 2 -->
  <line x1="550" y1="203" x2="550" y2="228" stroke="#38bdf8" stroke-width="1.5" marker-end="url(#arrow-blue)"/>

  <!-- ═══════════════════════════════════════════ -->
  <!-- PHASE 2: INGESTION + CORRELATION            -->
  <!-- ═══════════════════════════════════════════ -->
  <rect x="40" y="232" width="1020" height="130" rx="8" fill="#1e293b" stroke="#334155" stroke-width="1"/>
  <text x="60" y="254" fill="#22c55e" font-size="11" font-weight="700" letter-spacing="1">PHASE 2 — INGESTION + CORRELATION</text>
  <text x="960" y="254" fill="#475569" font-size="10" text-anchor="end">ingestion.ts · correlator.ts · baseline-scorer.ts</text>

  <!-- Virtual Clock -->
  <rect x="70" y="268" width="140" height="78" rx="6" fill="#0f172a" stroke="#22c55e" stroke-width="1.5"/>
  <text x="140" y="292" text-anchor="middle" fill="#22c55e" font-size="11" font-weight="600">Virtual Clock</text>
  <text x="140" y="308" text-anchor="middle" fill="#94a3b8" font-size="9">30s ticks</text>
  <text x="140" y="322" text-anchor="middle" fill="#94a3b8" font-size="9">20:00 → 06:00</text>
  <text x="140" y="336" text-anchor="middle" fill="#94a3b8" font-size="9">controllable speed</text>

  <!-- Ingestion -->
  <rect x="260" y="268" width="180" height="78" rx="6" fill="#0f172a" stroke="#334155" stroke-width="1"/>
  <text x="350" y="292" text-anchor="middle" fill="#e2e8f0" font-size="11" font-weight="600">Ingestion Pipeline</text>
  <text x="350" y="308" text-anchor="middle" fill="#94a3b8" font-size="9">ingestUpTo(simTime)</text>
  <text x="350" y="322" text-anchor="middle" fill="#94a3b8" font-size="9">dedup via seenIds</text>
  <text x="350" y="336" text-anchor="middle" fill="#94a3b8" font-size="9">batch persist → PGlite</text>

  <!-- Correlator -->
  <rect x="490" y="268" width="180" height="78" rx="6" fill="#0f172a" stroke="#334155" stroke-width="1"/>
  <text x="580" y="292" text-anchor="middle" fill="#e2e8f0" font-size="11" font-weight="600">Event Correlator</text>
  <text x="580" y="308" text-anchor="middle" fill="#94a3b8" font-size="9">same site + zone</text>
  <text x="580" y="322" text-anchor="middle" fill="#94a3b8" font-size="9">5-min window</text>
  <text x="580" y="336" text-anchor="middle" fill="#94a3b8" font-size="9">related type graph</text>

  <!-- Baseline Scorer -->
  <rect x="720" y="268" width="180" height="78" rx="6" fill="#0f172a" stroke="#334155" stroke-width="1"/>
  <text x="810" y="292" text-anchor="middle" fill="#e2e8f0" font-size="11" font-weight="600">Baseline Scorer</text>
  <text x="810" y="308" text-anchor="middle" fill="#94a3b8" font-size="9">EVENT_TYPE_PRIOR</text>
  <text x="810" y="322" text-anchor="middle" fill="#94a3b8" font-size="9">hour × zone × count</text>
  <text x="810" y="336" text-anchor="middle" fill="#94a3b8" font-size="9">→ priority + initial tier</text>

  <!-- SSE out -->
  <rect x="940" y="278" width="90" height="40" rx="20" fill="#22c55e" fill-opacity="0.15" stroke="#22c55e" stroke-width="1"/>
  <text x="985" y="302" text-anchor="middle" fill="#22c55e" font-size="10" font-weight="600">SSE →</text>

  <!-- Arrows phase 2 -->
  <line x1="210" y1="307" x2="258" y2="307" stroke="#64748b" stroke-width="1.2" marker-end="url(#arrow)"/>
  <line x1="440" y1="307" x2="488" y2="307" stroke="#64748b" stroke-width="1.2" marker-end="url(#arrow)"/>
  <line x1="670" y1="307" x2="718" y2="307" stroke="#64748b" stroke-width="1.2" marker-end="url(#arrow)"/>
  <line x1="900" y1="298" x2="938" y2="298" stroke="#22c55e" stroke-width="1.2" marker-end="url(#arrow-green)"/>

  <!-- Events label -->
  <text x="350" y="263" text-anchor="middle" fill="#475569" font-size="9">raw SimEvents</text>
  <text x="580" y="263" text-anchor="middle" fill="#475569" font-size="9">events[]</text>
  <text x="810" y="263" text-anchor="middle" fill="#475569" font-size="9">Incidents</text>

  <!-- Down arrow to phase 3 -->
  <line x1="550" y1="362" x2="550" y2="392" stroke="#38bdf8" stroke-width="1.5" marker-end="url(#arrow-blue)"/>
  <text x="565" y="382" fill="#475569" font-size="9">per incident</text>

  <!-- ═══════════════════════════════════════════ -->
  <!-- PHASE 3: DECISION ENGINE (THE AGENT LOOP)   -->
  <!-- ═══════════════════════════════════════════ -->
  <rect x="40" y="396" width="1020" height="380" rx="8" fill="#1e293b" stroke="#334155" stroke-width="1"/>
  <text x="60" y="418" fill="#f59e0b" font-size="11" font-weight="700" letter-spacing="1">PHASE 3 — DECISION ENGINE</text>
  <text x="960" y="418" fill="#475569" font-size="10" text-anchor="end">loop-engine.ts · agent-decider.ts · rules-decider.ts</text>

  <!-- Loop Engine -->
  <rect x="70" y="432" width="220" height="130" rx="6" fill="#0f172a" stroke="#f59e0b" stroke-width="1.5"/>
  <text x="180" y="454" text-anchor="middle" fill="#f59e0b" font-size="12" font-weight="700">Loop Engine</text>
  <text x="180" y="472" text-anchor="middle" fill="#94a3b8" font-size="9">per-incident state machine</text>

  <!-- Three moves -->
  <rect x="90" y="484" width="80" height="28" rx="4" fill="#0f172a" stroke="#38bdf8" stroke-width="1"/>
  <text x="130" y="502" text-anchor="middle" fill="#38bdf8" font-size="9" font-weight="600">investigate</text>

  <rect x="90" y="518" width="80" height="28" rx="4" fill="#0f172a" stroke="#22c55e" stroke-width="1"/>
  <text x="130" y="536" text-anchor="middle" fill="#22c55e" font-size="9" font-weight="600">commit</text>

  <rect x="188" y="484" width="80" height="28" rx="4" fill="#0f172a" stroke="#a78bfa" stroke-width="1"/>
  <text x="228" y="502" text-anchor="middle" fill="#a78bfa" font-size="9" font-weight="600">defer</text>

  <!-- Evidence levels -->
  <text x="195" y="556" text-anchor="middle" fill="#64748b" font-size="9">E0–E4 · 10-min deadline</text>

  <!-- Two-tier routing -->
  <rect x="340" y="432" width="300" height="160" rx="6" fill="#0f172a" stroke="#f59e0b" stroke-width="1.5"/>
  <text x="490" y="454" text-anchor="middle" fill="#f59e0b" font-size="12" font-weight="700">Two-Tier LLM Routing</text>

  <!-- Fast model -->
  <rect x="360" y="466" width="120" height="52" rx="5" fill="#1e293b" stroke="#38bdf8" stroke-width="1"/>
  <text x="420" y="486" text-anchor="middle" fill="#38bdf8" font-size="10" font-weight="600">Fast Model</text>
  <text x="420" y="500" text-anchor="middle" fill="#94a3b8" font-size="8">DeepSeek Chat</text>
  <text x="420" y="512" text-anchor="middle" fill="#94a3b8" font-size="8">E0–E2, clear cases</text>

  <!-- Strong model -->
  <rect x="500" y="466" width="120" height="52" rx="5" fill="#1e293b" stroke="#ef4444" stroke-width="1"/>
  <text x="560" y="486" text-anchor="middle" fill="#ef4444" font-size="10" font-weight="600">Strong Model</text>
  <text x="560" y="500" text-anchor="middle" fill="#94a3b8" font-size="8">DeepSeek Reasoner</text>
  <text x="560" y="512" text-anchor="middle" fill="#94a3b8" font-size="8">E3+ / ambiguous / 5% audit</text>

  <!-- Make decision output -->
  <rect x="370" y="530" width="250" height="48" rx="5" fill="#1e293b" stroke="#f59e0b" stroke-width="1" stroke-dasharray="4,3"/>
  <text x="495" y="549" text-anchor="middle" fill="#f59e0b" font-size="10" font-weight="600">make_decision</text>
  <text x="495" y="565" text-anchor="middle" fill="#94a3b8" font-size="8">prior_adjustment · reasons · what_would_change_my_mind · novelty_flag</text>

  <!-- Calibration -->
  <rect x="360" y="586" width="260" height="24" rx="4" fill="#f59e0b" fill-opacity="0.1" stroke="#f59e0b" stroke-width="0.8"/>
  <text x="490" y="602" text-anchor="middle" fill="#f59e0b" font-size="9">P(real) = sigmoid(logit(prior) + clamp(adj, ±2))</text>

  <!-- Agent Tools -->
  <rect x="690" y="432" width="340" height="160" rx="6" fill="#0f172a" stroke="#334155" stroke-width="1"/>
  <text x="860" y="454" text-anchor="middle" fill="#e2e8f0" font-size="12" font-weight="700">Agent Tools</text>

  <text x="720" y="474" fill="#94a3b8" font-size="9">get_incident_context</text>
  <text x="890" y="474" fill="#64748b" font-size="8">events, severity, zone</text>

  <text x="720" y="494" fill="#94a3b8" font-size="9">get_site_prior</text>
  <text x="890" y="494" fill="#64748b" font-size="8">P(real) from Beta(α,β) + n</text>

  <text x="720" y="514" fill="#94a3b8" font-size="9">find_precedent</text>
  <text x="890" y="514" fill="#64748b" font-size="8">k-NN past incidents</text>

  <text x="720" y="534" fill="#94a3b8" font-size="9">get_board_load</text>
  <text x="890" y="534" fill="#64748b" font-size="8">operator flood check</text>

  <text x="720" y="554" fill="#94a3b8" font-size="9">get_available_guards</text>
  <text x="890" y="554" fill="#64748b" font-size="8">on-shift, reliability</text>

  <text x="720" y="574" fill="#94a3b8" font-size="9">get_active_rules</text>
  <text x="890" y="574" fill="#64748b" font-size="8">safety constraints</text>

  <!-- Rules decider -->
  <rect x="690" y="602" width="340" height="48" rx="6" fill="#0f172a" stroke="#64748b" stroke-width="1" stroke-dasharray="4,3"/>
  <text x="860" y="622" text-anchor="middle" fill="#94a3b8" font-size="10" font-weight="600">Rules Decider (baseline, no LLM)</text>
  <text x="860" y="638" text-anchor="middle" fill="#64748b" font-size="8">fixed heuristics · flood-suppress E0–E1 · evidence → tier</text>

  <!-- Arrows in phase 3 -->
  <line x1="290" y1="497" x2="338" y2="497" stroke="#f59e0b" stroke-width="1.2" marker-end="url(#arrow-amber)"/>
  <line x1="640" y1="497" x2="688" y2="497" stroke="#64748b" stroke-width="1.2" marker-end="url(#arrow)"/>
  <text x="664" y="492" fill="#475569" font-size="8">tool calls</text>

  <!-- Evidence levels legend -->
  <rect x="70" y="660" width="220" height="95" rx="6" fill="#0f172a" stroke="#334155" stroke-width="1"/>
  <text x="180" y="680" text-anchor="middle" fill="#e2e8f0" font-size="10" font-weight="600">Evidence → Response Tier</text>
  <text x="90" y="697" fill="#22c55e" font-size="9">E0 Suppress</text>
  <text x="90" y="712" fill="#38bdf8" font-size="9">E1 Log &amp; watch</text>
  <text x="90" y="727" fill="#f59e0b" font-size="9">E2 Notify guard</text>
  <text x="90" y="742" fill="#ef4444" font-size="9">E3 Dispatch backup</text>
  <text x="200" y="697" fill="#ef4444" font-size="9">E4 Escalate to human</text>
  <text x="200" y="720" fill="#64748b" font-size="8">E3+ requires</text>
  <text x="200" y="733" fill="#64748b" font-size="8">operator gate</text>

  <!-- Down arrow to phase 4 -->
  <line x1="550" y1="776" x2="550" y2="808" stroke="#38bdf8" stroke-width="1.5" marker-end="url(#arrow-blue)"/>
  <text x="565" y="798" fill="#475569" font-size="9">decision</text>

  <!-- ═══════════════════════════════════════════ -->
  <!-- PHASE 4: OPERATOR GATE                      -->
  <!-- ═══════════════════════════════════════════ -->
  <rect x="40" y="812" width="1020" height="130" rx="8" fill="#1e293b" stroke="#334155" stroke-width="1"/>
  <text x="60" y="834" fill="#a78bfa" font-size="11" font-weight="700" letter-spacing="1">PHASE 4 — OPERATOR GATE</text>
  <text x="960" y="834" fill="#475569" font-size="10" text-anchor="end">override/route.ts · dispatch UI</text>

  <!-- Decision display -->
  <rect x="70" y="848" width="280" height="78" rx="6" fill="#0f172a" stroke="#a78bfa" stroke-width="1.5"/>
  <text x="210" y="870" text-anchor="middle" fill="#a78bfa" font-size="11" font-weight="600">Decision Card</text>
  <text x="210" y="888" text-anchor="middle" fill="#94a3b8" font-size="9">agent reasoning · P(real) · tier · adjustment reasons</text>
  <text x="210" y="904" text-anchor="middle" fill="#94a3b8" font-size="9">what would change my mind · novelty flag</text>
  <text x="210" y="918" text-anchor="middle" fill="#64748b" font-size="8">investigation trace (tool calls + raw LLM thinking)</text>

  <!-- Three buttons -->
  <rect x="400" y="855" width="105" height="34" rx="6" fill="#22c55e" fill-opacity="0.15" stroke="#22c55e" stroke-width="1.5"/>
  <text x="452" y="876" text-anchor="middle" fill="#22c55e" font-size="11" font-weight="700">Approve</text>

  <rect x="520" y="855" width="105" height="34" rx="6" fill="#f59e0b" fill-opacity="0.15" stroke="#f59e0b" stroke-width="1.5"/>
  <text x="572" y="876" text-anchor="middle" fill="#f59e0b" font-size="11" font-weight="700">Modify</text>

  <rect x="640" y="855" width="105" height="34" rx="6" fill="#ef4444" fill-opacity="0.15" stroke="#ef4444" stroke-width="1.5"/>
  <text x="692" y="876" text-anchor="middle" fill="#ef4444" font-size="11" font-weight="700">Override</text>

  <text x="572" y="906" text-anchor="middle" fill="#94a3b8" font-size="9">operator confirms, adjusts tier, or rejects</text>
  <text x="572" y="920" text-anchor="middle" fill="#a78bfa" font-size="9" font-weight="600">the override IS the training signal</text>

  <!-- Outcome record -->
  <rect x="790" y="848" width="240" height="78" rx="6" fill="#0f172a" stroke="#334155" stroke-width="1"/>
  <text x="910" y="870" text-anchor="middle" fill="#e2e8f0" font-size="11" font-weight="600">Outcome Record</text>
  <text x="910" y="888" text-anchor="middle" fill="#94a3b8" font-size="9">wasReal · correctTier · source</text>
  <text x="910" y="904" text-anchor="middle" fill="#94a3b8" font-size="9">operator reason · timestamp</text>
  <text x="910" y="918" text-anchor="middle" fill="#64748b" font-size="8">APPEND-ONLY → decisions + outcomes tables</text>

  <!-- Arrows -->
  <line x1="350" y1="877" x2="398" y2="872" stroke="#64748b" stroke-width="1.2" marker-end="url(#arrow)"/>
  <line x1="745" y1="872" x2="788" y2="877" stroke="#64748b" stroke-width="1.2" marker-end="url(#arrow)"/>

  <!-- Down arrow to phase 5 -->
  <line x1="550" y1="942" x2="550" y2="974" stroke="#38bdf8" stroke-width="1.5" marker-end="url(#arrow-blue)"/>
  <text x="565" y="964" fill="#475569" font-size="9">outcome</text>

  <!-- ═══════════════════════════════════════════ -->
  <!-- PHASE 5: LEARNING LOOP                      -->
  <!-- ═══════════════════════════════════════════ -->
  <rect x="40" y="978" width="1020" height="130" rx="8" fill="#1e293b" stroke="#334155" stroke-width="1"/>
  <text x="60" y="1000" fill="#22c55e" font-size="11" font-weight="700" letter-spacing="1">PHASE 5 — LEARNING LOOP</text>
  <text x="960" y="1000" fill="#475569" font-size="10" text-anchor="end">learned-priors.ts · episodic-memory.ts</text>

  <!-- Learned Priors -->
  <rect x="70" y="1016" width="300" height="78" rx="6" fill="#0f172a" stroke="#22c55e" stroke-width="1.5"/>
  <text x="220" y="1038" text-anchor="middle" fill="#22c55e" font-size="11" font-weight="600">Learned Priors — Beta(α, β)</text>
  <text x="220" y="1056" text-anchor="middle" fill="#94a3b8" font-size="9">per cell: event_type → site → zone → hour_bucket</text>
  <text x="220" y="1072" text-anchor="middle" fill="#94a3b8" font-size="9">α += 1 if wasReal · β += 1 if false alarm</text>
  <text x="220" y="1086" text-anchor="middle" fill="#64748b" font-size="8">hierarchical backoff · min n=3 before use</text>

  <!-- Episodic Memory -->
  <rect x="420" y="1016" width="300" height="78" rx="6" fill="#0f172a" stroke="#22c55e" stroke-width="1.5"/>
  <text x="570" y="1038" text-anchor="middle" fill="#22c55e" font-size="11" font-weight="600">Episodic Memory</text>
  <text x="570" y="1056" text-anchor="middle" fill="#94a3b8" font-size="9">PrecedentEntry[] — past incidents + outcomes</text>
  <text x="570" y="1072" text-anchor="middle" fill="#94a3b8" font-size="9">k-NN by site, zone, event type overlap</text>
  <text x="570" y="1086" text-anchor="middle" fill="#64748b" font-size="8">feeds find_precedent tool</text>

  <!-- Learning curve result -->
  <rect x="770" y="1016" width="260" height="78" rx="6" fill="#0f172a" stroke="#334155" stroke-width="1"/>
  <text x="900" y="1038" text-anchor="middle" fill="#e2e8f0" font-size="11" font-weight="600">30-Night Learning Curve</text>
  <text x="900" y="1056" text-anchor="middle" fill="#94a3b8" font-size="9">panic buttons: 85% → 10% P(real)</text>
  <text x="900" y="1072" text-anchor="middle" fill="#94a3b8" font-size="9">missed checkins @ site-005: 30% → 99%</text>
  <text x="900" y="1086" text-anchor="middle" fill="#64748b" font-size="8">17 train nights · 10 holdout nights</text>

  <!-- Feedback arrow back up to agent tools -->
  <path d="M 220 1016 L 220 996 Q 220 976 240 976 L 1070 976 Q 1080 976 1080 966 L 1080 520 Q 1080 500 1060 500 L 1032 500"
        fill="none" stroke="#22c55e" stroke-width="1.5" stroke-dasharray="6,3" marker-end="url(#arrow-green)"/>
  <text x="1076" y="740" fill="#22c55e" font-size="8" transform="rotate(-90,1076,740)">feeds back into get_site_prior + find_precedent</text>

  <!-- Down arrow to phase 6 -->
  <line x1="550" y1="1108" x2="550" y2="1140" stroke="#38bdf8" stroke-width="1.5" marker-end="url(#arrow-blue)"/>

  <!-- ═══════════════════════════════════════════ -->
  <!-- PHASE 6: FRONTEND                           -->
  <!-- ═══════════════════════════════════════════ -->
  <rect x="40" y="1144" width="1020" height="120" rx="8" fill="#1e293b" stroke="#334155" stroke-width="1"/>
  <text x="60" y="1166" fill="#38bdf8" font-size="11" font-weight="700" letter-spacing="1">FRONTEND — DISPATCH CONSOLE</text>
  <text x="960" y="1166" fill="#475569" font-size="10" text-anchor="end">React 19 · Next.js 16 · Tailwind · shadcn/ui</text>

  <rect x="70" y="1180" width="150" height="65" rx="6" fill="#0f172a" stroke="#334155" stroke-width="1"/>
  <text x="145" y="1200" text-anchor="middle" fill="#e2e8f0" font-size="10" font-weight="600">Incident Queue</text>
  <text x="145" y="1215" text-anchor="middle" fill="#94a3b8" font-size="8">live reordering</text>
  <text x="145" y="1228" text-anchor="middle" fill="#94a3b8" font-size="8">severity sort · J/K nav</text>
  <text x="145" y="1240" text-anchor="middle" fill="#64748b" font-size="8">↑↓ escalation arrows</text>

  <rect x="240" y="1180" width="150" height="65" rx="6" fill="#0f172a" stroke="#334155" stroke-width="1"/>
  <text x="315" y="1200" text-anchor="middle" fill="#e2e8f0" font-size="10" font-weight="600">Investigation Trace</text>
  <text x="315" y="1215" text-anchor="middle" fill="#94a3b8" font-size="8">tool calls timeline</text>
  <text x="315" y="1228" text-anchor="middle" fill="#94a3b8" font-size="8">raw LLM thinking</text>
  <text x="315" y="1240" text-anchor="middle" fill="#64748b" font-size="8">expand/collapse</text>

  <rect x="410" y="1180" width="150" height="65" rx="6" fill="#0f172a" stroke="#334155" stroke-width="1"/>
  <text x="485" y="1200" text-anchor="middle" fill="#e2e8f0" font-size="10" font-weight="600">Decision Card</text>
  <text x="485" y="1215" text-anchor="middle" fill="#94a3b8" font-size="8">reasoning display</text>
  <text x="485" y="1228" text-anchor="middle" fill="#94a3b8" font-size="8">P(real) · tier · reasons</text>
  <text x="485" y="1240" text-anchor="middle" fill="#64748b" font-size="8">override panel</text>

  <rect x="580" y="1180" width="150" height="65" rx="6" fill="#0f172a" stroke="#334155" stroke-width="1"/>
  <text x="655" y="1200" text-anchor="middle" fill="#e2e8f0" font-size="10" font-weight="600">Learning Panel</text>
  <text x="655" y="1215" text-anchor="middle" fill="#94a3b8" font-size="8">Beta priors viz</text>
  <text x="655" y="1228" text-anchor="middle" fill="#94a3b8" font-size="8">observation count n</text>
  <text x="655" y="1240" text-anchor="middle" fill="#64748b" font-size="8">prior updates live</text>

  <rect x="750" y="1180" width="150" height="65" rx="6" fill="#0f172a" stroke="#334155" stroke-width="1"/>
  <text x="825" y="1200" text-anchor="middle" fill="#e2e8f0" font-size="10" font-weight="600">Replay Controls</text>
  <text x="825" y="1215" text-anchor="middle" fill="#94a3b8" font-size="8">virtual clock</text>
  <text x="825" y="1228" text-anchor="middle" fill="#94a3b8" font-size="8">speed 1×–100×</text>
  <text x="825" y="1240" text-anchor="middle" fill="#64748b" font-size="8">pause / resume</text>

  <rect x="920" y="1180" width="110" height="65" rx="6" fill="#0f172a" stroke="#334155" stroke-width="1"/>
  <text x="975" y="1200" text-anchor="middle" fill="#e2e8f0" font-size="10" font-weight="600">Metrics</text>
  <text x="975" y="1215" text-anchor="middle" fill="#94a3b8" font-size="8">cost tracking</text>
  <text x="975" y="1228" text-anchor="middle" fill="#94a3b8" font-size="8">calibration stats</text>
  <text x="975" y="1240" text-anchor="middle" fill="#64748b" font-size="8">session summary</text>

  <!-- ═══════════════════════════════════════════ -->
  <!-- DATA LAYER                                  -->
  <!-- ═══════════════════════════════════════════ -->
  <rect x="40" y="1280" width="1020" height="80" rx="8" fill="#1e293b" stroke="#a78bfa" stroke-width="1"/>
  <text x="60" y="1302" fill="#a78bfa" font-size="11" font-weight="700" letter-spacing="1">DATA LAYER</text>
  <text x="960" y="1302" fill="#475569" font-size="10" text-anchor="end">PGlite · Drizzle ORM · schema.ts</text>

  <text x="120" y="1330" fill="#e2e8f0" font-size="10" font-weight="600">sites</text>
  <text x="120" y="1345" fill="#64748b" font-size="8">12 sites, zones</text>

  <text x="230" y="1330" fill="#e2e8f0" font-size="10" font-weight="600">guards</text>
  <text x="230" y="1345" fill="#64748b" font-size="8">credentials, shifts</text>

  <text x="340" y="1330" fill="#e2e8f0" font-size="10" font-weight="600">robots</text>
  <text x="340" y="1345" fill="#64748b" font-size="8">routes, sensors</text>

  <text x="460" y="1330" fill="#a78bfa" font-size="10" font-weight="600">events</text>
  <text x="460" y="1345" fill="#64748b" font-size="8">273+ append-only</text>

  <text x="580" y="1330" fill="#a78bfa" font-size="10" font-weight="600">incidents</text>
  <text x="580" y="1345" fill="#64748b" font-size="8">correlated groups</text>

  <text x="710" y="1330" fill="#a78bfa" font-size="10" font-weight="600">decisions</text>
  <text x="710" y="1345" fill="#64748b" font-size="8">append-only audit</text>

  <text x="840" y="1330" fill="#a78bfa" font-size="10" font-weight="600">outcomes</text>
  <text x="840" y="1345" fill="#64748b" font-size="8">feedback + ground truth</text>

  <text x="960" y="1330" fill="#e2e8f0" font-size="10" font-weight="600">shifts</text>
  <text x="960" y="1345" fill="#64748b" font-size="8">guard schedules</text>

  <!-- ═══════════════════════════════════════════ -->
  <!-- STACK BADGES                                -->
  <!-- ═══════════════════════════════════════════ -->
  <rect x="40" y="1376" width="1020" height="38" rx="8" fill="#0f172a" stroke="#334155" stroke-width="1"/>

  <rect x="60" y="1384" width="70" height="22" rx="11" fill="#38bdf8" fill-opacity="0.15"/>
  <text x="95" y="1399" text-anchor="middle" fill="#38bdf8" font-size="9" font-weight="600">Next.js 16</text>

  <rect x="140" y="1384" width="60" height="22" rx="11" fill="#38bdf8" fill-opacity="0.15"/>
  <text x="170" y="1399" text-anchor="middle" fill="#38bdf8" font-size="9" font-weight="600">React 19</text>

  <rect x="210" y="1384" width="80" height="22" rx="11" fill="#38bdf8" fill-opacity="0.15"/>
  <text x="250" y="1399" text-anchor="middle" fill="#38bdf8" font-size="9" font-weight="600">TypeScript</text>

  <rect x="300" y="1384" width="80" height="22" rx="11" fill="#06b6d4" fill-opacity="0.15"/>
  <text x="340" y="1399" text-anchor="middle" fill="#06b6d4" font-size="9" font-weight="600">Tailwind 4</text>

  <rect x="390" y="1384" width="70" height="22" rx="11" fill="#a78bfa" fill-opacity="0.15"/>
  <text x="425" y="1399" text-anchor="middle" fill="#a78bfa" font-size="9" font-weight="600">PGlite</text>

  <rect x="470" y="1384" width="80" height="22" rx="11" fill="#a78bfa" fill-opacity="0.15"/>
  <text x="510" y="1399" text-anchor="middle" fill="#a78bfa" font-size="9" font-weight="600">Drizzle ORM</text>

  <rect x="560" y="1384" width="70" height="22" rx="11" fill="#f59e0b" fill-opacity="0.15"/>
  <text x="595" y="1399" text-anchor="middle" fill="#f59e0b" font-size="9" font-weight="600">DeepSeek</text>

  <rect x="640" y="1384" width="75" height="22" rx="11" fill="#22c55e" fill-opacity="0.15"/>
  <text x="677" y="1399" text-anchor="middle" fill="#22c55e" font-size="9" font-weight="600">shadcn/ui</text>

  <rect x="725" y="1384" width="55" height="22" rx="11" fill="#22c55e" fill-opacity="0.15"/>
  <text x="752" y="1399" text-anchor="middle" fill="#22c55e" font-size="9" font-weight="600">Vitest</text>

  <rect x="790" y="1384" width="50" height="22" rx="11" fill="#64748b" fill-opacity="0.15"/>
  <text x="815" y="1399" text-anchor="middle" fill="#94a3b8" font-size="9" font-weight="600">SSE</text>

  <!-- ═══════════════════════════════════════════ -->
  <!-- KEY / LEGEND                                -->
  <!-- ═══════════════════════════════════════════ -->
  <rect x="40" y="1430" width="1020" height="76" rx="8" fill="#0f172a" stroke="#334155" stroke-width="1"/>
  <text x="60" y="1452" fill="#64748b" font-size="10" font-weight="600">LEGEND</text>

  <line x1="120" y1="1448" x2="155" y2="1448" stroke="#38bdf8" stroke-width="2"/>
  <text x="162" y="1452" fill="#94a3b8" font-size="9">Simulation flow</text>

  <line x1="260" y1="1448" x2="295" y2="1448" stroke="#f59e0b" stroke-width="2"/>
  <text x="302" y="1452" fill="#94a3b8" font-size="9">Decision flow</text>

  <line x1="400" y1="1448" x2="435" y2="1448" stroke="#22c55e" stroke-width="2"/>
  <text x="442" y="1452" fill="#94a3b8" font-size="9">Learning feedback</text>

  <line x1="560" y1="1448" x2="595" y2="1448" stroke="#a78bfa" stroke-width="2"/>
  <text x="602" y="1452" fill="#94a3b8" font-size="9">Operator interaction</text>

  <line x1="730" y1="1448" x2="765" y2="1448" stroke="#64748b" stroke-width="2" stroke-dasharray="4,3"/>
  <text x="772" y="1452" fill="#94a3b8" font-size="9">Structured output</text>

  <text x="60" y="1480" fill="#64748b" font-size="9">Highlighted borders = key entry points · Dashed borders = structured schemas · Append-only tables ensure full auditability</text>
  <text x="60" y="1496" fill="#475569" font-size="8">Inspectability over autonomy — the operator gate is the product. Every decision has a stated reason and a stated reversal condition.</text>
</svg>